<?xml version="1.0" encoding="iso-8859-1"?>
<!-- Generator: Adobe Illustrator 18.1.1, SVG Export Plug-In . SVG Version: 6.00 Build 0)  -->
<svg version="1.1" id="Capa_1" xmlns="http://www.w3.org/2000/svg" xmlns:xlink="http://www.w3.org/1999/xlink" x="0px" y="0px"
	 viewBox="0 0 344.445 344.445" style="enable-background:new 0 0 344.445 344.445;" xml:space="preserve">
<path d="M172.228,344.445c-16.641,0-32.34-6.503-44.208-18.311c-3.132-3.116-3.145-8.182-0.028-11.313
	c3.116-3.133,8.182-3.144,11.313-0.028c8.849,8.804,20.541,13.652,32.922,13.652c25.774,0,46.743-20.968,46.743-46.741v-10.046
	l-46.744-26.987l-20.118,11.615c-3.825,2.207-8.719,0.898-10.928-2.929c-2.209-3.826-0.898-8.719,2.928-10.928l12.118-6.997
	l-30.741-17.748v23.039c0,4.418-3.582,8-8,8s-8-3.582-8-8v-32.276l-46.742-26.986l-8.701,5.022
	c-10.76,6.213-18.472,16.298-21.714,28.399c-3.243,12.101-1.607,24.691,4.606,35.451c4.258,7.376,10.461,13.437,17.938,17.525
	c3.876,2.119,5.3,6.98,3.181,10.857c-2.12,3.876-6.98,5.303-10.857,3.18c-10.052-5.497-18.391-13.645-24.117-23.562
	c-8.35-14.461-10.553-31.363-6.205-47.593c4.349-16.229,14.708-29.765,29.169-38.113l0.701-0.405l-0.702-0.405
	C16.097,154.528,5.79,116.112,23.051,86.159c0.009-0.017,0.019-0.033,0.028-0.049c17.299-29.96,55.744-40.26,85.706-22.965
	l0.701,0.405v-0.809C109.486,28.146,137.632,0,172.228,0c15.526,0,30.452,5.77,42.028,16.245c3.276,2.965,3.529,8.023,0.564,11.3
	c-2.964,3.276-8.024,3.528-11.299,0.563C194.892,20.3,183.778,16,172.228,16c-25.774,0-46.742,20.969-46.742,46.742v10.046
	l46.742,26.986l25.224-14.562c3.826-2.209,8.72-0.898,10.928,2.928c2.209,3.826,0.898,8.719-2.928,10.928l-17.224,9.945
	l30.743,17.749v-9.28c0-4.418,3.582-8,8-8s8,3.582,8,8v18.518l46.741,26.986l8.701-5.024c10.76-6.211,18.471-16.297,21.713-28.397
	s1.606-24.691-4.606-35.451c-4.322-7.487-10.638-13.608-18.265-17.702c-3.893-2.09-5.354-6.939-3.265-10.832
	c2.089-3.895,6.94-5.355,10.833-3.266c10.252,5.503,18.743,13.733,24.554,23.801c8.349,14.46,10.552,31.362,6.204,47.591
	c-4.349,16.229-14.708,29.765-29.168,38.114l-0.701,0.404l0.701,0.405c14.461,8.35,24.82,21.885,29.168,38.114
	c4.337,16.186,2.157,33.04-6.137,47.475c-0.022,0.04-0.044,0.08-0.067,0.119c-17.299,29.959-55.746,40.263-85.706,22.964
	l-0.701-0.404v0.809C234.971,316.3,206.825,344.445,172.228,344.445z M234.971,262.421l8.701,5.022
	c22.287,12.87,50.879,5.236,63.792-17.009c0.019-0.034,0.039-0.068,0.058-0.102c6.212-10.76,7.848-23.35,4.606-35.45
	c-3.243-12.101-10.954-22.187-21.714-28.399l-8.701-5.023l-46.741,26.986V262.421z M188.227,235.433l30.744,17.75v-35.499
	L188.227,235.433z M125.486,199.209l46.741,26.986l46.744-26.987v-53.972l-46.743-26.986l-46.742,26.986V199.209z M78.744,172.223
	l30.742,17.749v-35.498L78.744,172.223z M234.971,154.475v35.496l30.741-17.748L234.971,154.475z M36.963,94.063
	c-0.01,0.017-0.019,0.033-0.029,0.05c-12.886,22.319-5.211,50.962,17.108,63.849l8.702,5.023l46.742-26.986V82.026l-8.701-5.023
	C78.481,64.123,49.863,71.781,36.963,94.063z M125.486,91.264v35.498l30.742-17.749L125.486,91.264z M99.543,310.015
	c-14.305,0-25.943-11.638-25.943-25.943s11.638-25.943,25.943-25.943s25.943,11.638,25.943,25.943S113.848,310.015,99.543,310.015z
	 M99.543,274.128c-5.483,0-9.943,4.461-9.943,9.943s4.46,9.943,9.943,9.943c5.482,0,9.943-4.461,9.943-9.943
	S105.025,274.128,99.543,274.128z M242.976,88.601c-14.305,0-25.943-11.638-25.943-25.943s11.638-25.943,25.943-25.943
	c14.306,0,25.945,11.638,25.945,25.943S257.282,88.601,242.976,88.601z M242.976,52.714c-5.482,0-9.943,4.461-9.943,9.943
	s4.46,9.943,9.943,9.943c5.483,0,9.945-4.461,9.945-9.943S248.459,52.714,242.976,52.714z"/>
<g>
</g>
<g>
</g>
<g>
</g>
<g>
</g>
<g>
</g>
<g>
</g>
<g>
</g>
<g>
</g>
<g>
</g>
<g>
</g>
<g>
</g>
<g>
</g>
<g>
</g>
<g>
</g>
<g>
</g>
</svg>
